<?xml version="1.0" standalone="no"?><!DOCTYPE svg PUBLIC "-//W3C//DTD SVG 1.1//EN" "http://www.w3.org/Graphics/SVG/1.1/DTD/svg11.dtd"><svg t="1585463197356" class="icon" viewBox="0 0 1024 1024" version="1.1" xmlns="http://www.w3.org/2000/svg" p-id="3273" xmlns:xlink="http://www.w3.org/1999/xlink" width="128" height="128"><defs><style type="text/css"></style></defs><path d="M570.23948232 417.87745735c0 5.08770531 3.39180317 8.47950848 8.47950848 8.47950848h152.63115036c5.08770531 0 8.47950848-3.39180317 8.47950735-8.47950848s-3.39180317-8.47950848-8.47950735-8.47950848h-152.63115036c-5.08770531 0-8.47950848 3.39180317-8.47950848 8.47950848zM539.7132527 331.38647267c1.69590215 3.39180317 6.78360633 5.08770531 11.87131165 3.39180317l135.6721334-71.22786987c3.39180317-1.69590215 5.08770531-6.78360633 3.39180316-11.87131164-1.69590215-3.39180317-6.78360633-5.08770531-11.87131164-3.39180316l-135.6721334 71.22786986c-3.39180317 3.39180317-5.08770531 8.47950848-3.39180317 11.87131164zM378.60259385 277.11761977c-94.97049315 3.39180317-169.59016619 83.09918151-164.50246086 178.06967466 3.39180317 66.14016455 40.70164025 120.40901859 96.66639416 147.54344506 1.69590215 1.69590215 5.08770531 1.69590215 6.78360747 3.39180316l74.61967303-127.19262492 164.50246201-6.78360634c1.69590215-10.17540949 1.69590215-20.35082013 1.69590101-32.22213176-1.69590215-45.78934443-20.35082013-86.49098467-50.87704974-115.32131328-35.61393493-28.83032861-79.70737835-49.18114873-128.88852708-47.48524658zM482.05259549 277.11761977l71.22786987-135.6721334c1.69590215-3.39180317 0-8.47950848-3.39180317-11.87131165-3.39180317-1.69590215-8.47950848 0-11.87131164 3.39180317l-71.22786987 135.6721334c-1.69590215 3.39180317 0 8.47950848 3.39180317 11.87131164 5.08770531 3.39180317 10.17540949 1.69590215 11.87131164-3.39180316zM380.29849601 266.94220914c5.08770531 0 8.47950848-3.39180317 8.47950848-8.47950848v-152.63114923c0-5.08770531-3.39180317-8.47950848-8.47950848-8.47950848s-8.47950848 3.39180317-8.47950848 8.47950848v152.63114923c0 5.08770531 3.39180317 8.47950848 8.47950848 8.47950848zM271.76078905 283.9012261c1.69590215 3.39180317 6.78360633 5.08770531 11.87131165 3.39180316 3.39180317-1.69590215 5.08770531-6.78360633 3.39180317-11.87131164l-71.22786987-135.67213341c-1.69590215-3.39180317-6.78360633-5.08770531-11.87131165-3.39180316-3.39180317 1.69590215-5.08770531 6.78360633-3.39180316 11.87131164l71.22786986 135.67213341zM202.22882134 341.56188217c3.39180317 1.69590215 8.47950848 0 11.87131165-3.39180316 1.69590215-3.39180317 0-8.47950848-3.39180317-11.87131165l-135.67213341-71.22786987c-3.39180317-1.69590215-8.47950848 0-11.87131164 3.39180317-1.69590215 3.39180317 0 8.47950848 3.39180316 11.87131164l135.67213341 71.22786987zM183.57390223 424.66106368c0-5.08770531-3.39180317-8.47950848-8.47950848-8.47950734H22.46324452c-5.08770531 0-8.47950848 3.39180317-8.47950848 8.47950734s3.39180317 8.47950848 8.47950848 8.47950848h152.63114923c3.39180317 0 8.47950848-3.39180317 8.47950848-8.47950848zM205.62062451 526.4151643c-1.69590215-3.39180317-6.78360633-5.08770531-11.87131165-3.39180316l-132.28033024 74.61967303c-3.39180317 1.69590215-5.08770531 6.78360633-3.39180317 11.87131164 1.69590215 3.39180317 6.78360633 5.08770531 11.87131165 3.39180317l132.28033024-74.61967303c5.08770531-3.39180317 6.78360633-8.47950848 3.39180317-11.87131165zM258.1935764 833.37336605h74.61967303v64.4442624h-74.61967303zM843.27965014 833.37336605v66.14016454h74.61967417V675.65451037l-57.66065721 157.71885568z" fill="#030000" p-id="3274"></path><path d="M402.34521715 489.10532722L203.92472235 824.89385757h656.31394475l57.66065721-157.71885568L984.03948886 489.10532722z" fill="#030000" p-id="3275"></path></svg>