<?xml version="1.0" standalone="no"?><!DOCTYPE svg PUBLIC "-//W3C//DTD SVG 1.1//EN" "http://www.w3.org/Graphics/SVG/1.1/DTD/svg11.dtd"><svg t="1585463420005" class="icon" viewBox="0 0 1024 1024" version="1.1" xmlns="http://www.w3.org/2000/svg" p-id="12351" xmlns:xlink="http://www.w3.org/1999/xlink" width="128" height="128"><defs><style type="text/css"></style></defs><path d="M50.251852 479.762963l104.296296 128.948148h808.770371l13.274074-90.074074h-38.874074v-47.407407h8.533333v-23.703704H805.925926L794.548148 407.703704l-1.896296-6.637037H644.740741l-34.133334-55.940741v-14.222222l-83.437037-5.688889v-41.718519h-8.533333v40.770371l-7.585185-0.948148v-25.6h-11.377778V322.37037h-13.274074l-118.518519 8.533334v27.496296h8.533334l8.533333 40.77037H240.82963v25.6h4.74074c-0.948148 8.533333-2.844444 19.911111-3.792592 32.237037l-192.474074-5.688888h-2.844445v2.844444l0.948148 25.6h5.688889l-0.948148-22.755556H66.37037l0.948149 22.755556H50.251852z m322.37037 60.681481c5.688889 0 9.481481 4.740741 9.481482 9.481482 0 5.688889-4.740741 9.481481-9.481482 9.481481-5.688889 0-9.481481-4.740741-9.481481-9.481481s3.792593-9.481481 9.481481-9.481482z m235.140741 0c5.688889 0 9.481481 4.740741 9.481481 9.481482 0 5.688889-4.740741 9.481481-9.481481 9.481481-5.688889 0-9.481481-4.740741-9.481482-9.481481-0.948148-4.740741 3.792593-9.481481 9.481482-9.481482z m-45.511111 0c5.688889 0 9.481481 4.740741 9.481481 9.481482 0 5.688889-4.740741 9.481481-9.481481 9.481481-5.688889 0-9.481481-4.740741-9.481482-9.481481-0.948148-4.740741 3.792593-9.481481 9.481482-9.481482zM512 540.444444c5.688889 0 9.481481 4.740741 9.481481 9.481482 0 5.688889-4.740741 9.481481-9.481481 9.481481-5.688889 0-9.481481-4.740741-9.481481-9.481481-0.948148-4.740741 3.792593-9.481481 9.481481-9.481482z m-45.511111 0c5.688889 0 9.481481 4.740741 9.481481 9.481482 0 5.688889-4.740741 9.481481-9.481481 9.481481-5.688889 0-9.481481-4.740741-9.481482-9.481481-0.948148-4.740741 3.792593-9.481481 9.481482-9.481482z m-48.355556 0c5.688889 0 9.481481 4.740741 9.481482 9.481482 0 5.688889-4.740741 9.481481-9.481482 9.481481-5.688889 0-9.481481-4.740741-9.481481-9.481481-0.948148-4.740741 3.792593-9.481481 9.481481-9.481482zM258.844444 424.77037H616.296296l24.651852 73.007408H303.407407l-10.429629-12.325926h2.844444l-0.948148-4.740741h9.481482v-41.718518H274.962963v18.962963l-19.911111-0.948149c1.896296-12.325926 2.844444-24.651852 3.792592-32.237037z m369.777778-5.688889h150.755556l8.533333 28.444445H638.103704l-9.481482-28.444445z m17.066667 52.148149H919.703704v47.407407H663.703704l-5.688889-8.533333 0.948148-0.948148-0.948148-3.792593-12.325926-34.133333z m-407.703704 13.274074h-4.740741l-0.948148-22.755556h8.533334c-0.948148 7.585185-1.896296 16.118519-2.844445 22.755556z m16.118519-21.807408h12.325926l0.948148 21.807408h-15.170371l0.948149-10.42963c0-3.792593 0.948148-7.585185 0.948148-11.377778z m36.029629 22.755556h-17.066666l-0.948148-21.807408h2.844444v17.066667h14.222222l0.948148 4.740741z m-61.629629-1.896296h-15.170371l-0.948148-22.755556H227.555556l0.948148 22.755556z m-20.85926 0h-15.17037l-0.948148-22.755556h15.17037l0.948148 22.755556z m-19.911111-0.948149h-15.17037l-0.948148-22.755555h15.17037l0.948148 22.755555z m-19.911111 0h-15.17037l-0.948148-22.755555h15.17037l0.948148 22.755555z m-19.911111-0.948148H132.740741l-0.948148-22.755555h15.17037l0.948148 22.755555z m-19.911111 0h-15.17037l-0.948149-22.755555h15.170371l0.948148 22.755555z m-19.911111-0.948148H92.918519l-0.948149-22.755555h15.170371l0.948148 22.755555z m-20.859259 0H72.059259l-0.948148-22.755555h15.17037l0.948149 22.755555z m793.6-1.896296h22.755555v35.081481h-22.755555v-35.081481z m-160.237037 0h22.755555v35.081481H720.592593v-35.081481z m54.044444 0h22.755556v35.081481h-22.755556v-35.081481z m53.096296 0h22.755556v35.081481h-22.755556v-35.081481z m-160.237037 0h22.755556v35.081481h-22.755556v-35.081481z m-93.866666-113.777778h29.392592v27.496296h-29.392592v-27.496296z m-59.733334 0h29.392593v27.496296h-29.392593v-27.496296z m-59.733333 0H483.555556v27.496296h-29.392593v-27.496296z m-62.577778-0.948148l-0.948148-5.688889h212.385185l24.651852 40.77037H399.17037l-0.948148-6.637037h25.6v-28.444444h-32.237037z m182.044445 73.955555h29.392592v41.718519h-29.392592v-41.718519z m-59.733334 0h29.392593v41.718519h-29.392593v-41.718519z m-59.733333 0H483.555556v41.718519h-29.392593v-41.718519z m-59.733333 0h29.392592v41.718519h-29.392592v-41.718519z m-59.733334 0h29.392593v41.718519h-29.392593v-41.718519z m294.874074-36.977777l-0.948148-0.948148 0.948148 0.948148z" fill="#000001" p-id="12352"></path></svg>