<?xml version="1.0" standalone="no"?><!DOCTYPE svg PUBLIC "-//W3C//DTD SVG 1.1//EN" "http://www.w3.org/Graphics/SVG/1.1/DTD/svg11.dtd"><svg t="1585463352405" class="icon" viewBox="0 0 1024 1024" version="1.1" xmlns="http://www.w3.org/2000/svg" p-id="9290" xmlns:xlink="http://www.w3.org/1999/xlink" width="128" height="128"><defs><style type="text/css"></style></defs><path d="M210.488889 530.014815c17.066667 0 33.185185 7.585185 44.562963 18.962963 11.377778 11.377778 18.962963 27.496296 18.962963 44.562963 0 17.066667-6.637037 33.185185-18.962963 44.562963-11.377778 11.377778-27.496296 18.962963-44.562963 18.962963-17.066667 0-33.185185-6.637037-44.562963-18.962963-11.377778-11.377778-18.962963-27.496296-18.962963-44.562963 0-17.066667 6.637037-33.185185 18.962963-44.562963 11.377778-12.325926 27.496296-18.962963 44.562963-18.962963zM94.814815 441.837037c-9.481481 20.859259-7.585185 65.422222-5.688889 98.607407-7.585185 1.896296-16.118519 3.792593-23.703704 4.740741 1.896296 21.807407 2.844444 42.666667 12.325926 65.422222l33.185185 12.325926 4.740741 27.496297 5.688889 0.948148 0.948148-58.785185v-0.948149c0-4.740741 0-9.481481 0.948148-14.222222 2.844444-18.962963 12.325926-35.081481 24.651852-48.355555 16.118519-16.118519 37.925926-25.6 62.577778-25.6 24.651852 0 46.459259 9.481481 62.577778 25.6 13.274074 13.274074 22.755556 31.288889 25.6 51.2 0.948148 3.792593 0.948148 7.585185 0.948148 11.377777v0.948149l2.844444 45.511111h401.066667l1.896296-46.45926v-0.948148c0-4.740741 0-9.481481 0.948148-14.222222 2.844444-18.962963 12.325926-35.081481 24.651852-48.355555 16.118519-16.118519 37.925926-25.6 62.577778-25.6 24.651852 0 46.459259 9.481481 62.577778 25.6 13.274074 13.274074 22.755556 31.288889 25.6 51.2v14.222222l1.896296 30.34074 0.948148 27.496297 12.325926-3.792593 3.792593-10.429629 66.37037-10.42963c0-26.548148-2.844444-52.148148-13.274074-77.748148-4.740741-0.948148-8.533333-1.896296-13.274074-2.844445-3.792593-16.118519-7.585185-31.288889-11.377778-47.407407-53.096296-26.548148-137.481481-43.614815-212.385185-53.096296-32.237037-36.977778-70.162963-68.266667-113.777778-92.918519-5.688889 4.740741-11.377778 8.533333-16.118518 13.274074 19.911111 23.703704 39.822222 50.251852 61.629629 77.748148 13.274074 12.325926 28.444444 28.444444 29.392593 34.133334 1.896296 9.481481-5.688889 137.481481-6.637037 138.429629v1.896297H470.281481l-0.948148-0.948149c-10.42963-19.911111-18.962963-41.718519-24.651852-63.525925-5.688889-21.807407-10.42963-44.562963-12.325925-67.318519v-0.948148l8.533333-27.496296 4.740741 0.948148-7.585186 26.548148c1.896296 22.755556 5.688889 44.562963 12.325926 65.422222 5.688889 20.859259 13.274074 41.718519 23.703704 60.681482h193.422222c0.948148-17.066667 7.585185-126.103704 5.688889-134.637037-0.948148-5.688889-18.962963-22.755556-31.288889-34.133334-52.148148 1.896296-117.57037 0.948148-182.992592-0.948148-2.844444-7.585185-5.688889-15.17037-6.637037-16.118518-0.948148-0.948148-7.585185-0.948148-13.274074-0.948149l-0.948149-5.688889h11.377778s2.844444-31.288889-1.896296-36.977777c-4.740741-5.688889-23.703704-16.118519-26.548148-10.42963-2.844444 5.688889 6.637037 47.407407 6.637037 47.407407h4.740741l0.948148 6.637038h-4.740741v15.17037c-57.837037-1.896296-114.725926-4.740741-163.081482-8.533333-2.844444-5.688889-4.740741-11.377778-7.585185-16.118519-91.022222 3.792593-114.725926 29.392593-163.081481 25.6z m364.088889 49.303704h35.081481c2.844444 0 4.740741 1.896296 4.740741 4.74074s-1.896296 4.740741-4.740741 4.740741h-35.081481c-2.844444 0-4.740741-1.896296-4.740741-4.740741s1.896296-4.740741 4.740741-4.74074z m462.696296 13.274074l8.533333 36.977778s-40.77037-5.688889-49.303703-16.118519c-7.585185-10.42963-6.637037-34.133333-6.637037-34.133333l47.407407 13.274074z m-755.674074-6.637037c-4.740741 0.948148-6.637037-0.948148-4.740741-4.740741 35.081481-30.340741 81.540741-17.066667 104.296296 1.896296 2.844444 2.844444 2.844444 4.740741 0 6.637037-32.237037-14.222222-64.474074-16.118519-99.555555-3.792592z m571.733333 0c-4.740741 0.948148-6.637037-0.948148-4.74074-4.740741 35.081481-30.340741 81.540741-17.066667 104.296296 1.896296 2.844444 2.844444 2.844444 4.740741 0 6.637037-31.288889-14.222222-64.474074-16.118519-99.555556-3.792592z m55.940741 32.237037c17.066667 0 33.185185 7.585185 44.562963 18.962963 11.377778 11.377778 18.962963 27.496296 18.962963 44.562963 0 17.066667-7.585185 33.185185-18.962963 44.562963-11.377778 11.377778-27.496296 18.962963-44.562963 18.962963-17.066667 0-33.185185-6.637037-44.562963-18.962963-11.377778-11.377778-18.962963-27.496296-18.962963-44.562963 0-17.066667 6.637037-33.185185 18.962963-44.562963 11.377778-12.325926 26.548148-18.962963 44.562963-18.962963z m10.42963 66.37037l46.459259-10.429629v6.637037c0 14.222222-5.688889 28.444444-14.222222 37.925926l-32.237037-34.133334z m41.718518-28.444444l-46.459259 17.066666 3.792592-49.303703c12.325926 1.896296 22.755556 7.585185 31.288889 16.118518 4.740741 4.740741 8.533333 10.42963 11.377778 16.118519z m-61.629629-32.237037l2.844444 49.303703-46.459259-18.014814c2.844444-5.688889 6.637037-11.377778 11.377777-15.170371 8.533333-8.533333 19.911111-14.222222 32.237038-16.118518z m-48.355556 49.303703l48.355556 11.377778-29.392593 39.822222-2.844445-2.844444c-10.42963-10.42963-17.066667-24.651852-17.066666-40.77037 0-1.896296 0-4.740741 0.948148-7.585186z m35.081481 61.62963l23.703704-42.666667 28.444445 39.822223c-8.533333 4.740741-18.962963 7.585185-29.392593 7.585185-8.533333 0-16.118519-1.896296-22.755556-4.740741z m-548.977777-50.251852l33.185185 35.081482c8.533333-10.42963 14.222222-23.703704 14.222222-37.925926v-6.637037l-47.407407 9.481481z m41.718518-28.444444c-2.844444-5.688889-6.637037-11.377778-11.377778-16.118519-8.533333-8.533333-18.962963-14.222222-31.288888-16.118518l-3.792593 49.303703 46.459259-17.066666z m-61.629629-32.237037c-12.325926 1.896296-23.703704 7.585185-32.237037 16.118518-4.740741 4.740741-8.533333 9.481481-11.377778 15.170371l46.459259 18.014814-2.844444-49.303703z m-49.303704 49.303703c0 2.844444-0.948148 4.740741-0.948148 7.585186 0 16.118519 6.637037 30.340741 17.066666 40.77037l2.844445 2.844444 29.392592-39.822222-48.355555-11.377778z m35.081481 61.62963c6.637037 2.844444 15.17037 4.740741 22.755556 4.740741 10.42963 0 20.859259-2.844444 29.392592-7.585185l-28.444444-39.822223-23.703704 42.666667z m605.866667-133.688889c21.807407 0 41.718519 8.533333 55.940741 23.703704 14.222222 14.222222 23.703704 34.133333 23.703703 55.940741 0 21.807407-8.533333 41.718519-23.703703 55.94074-14.222222 14.222222-34.133333 22.755556-55.940741 22.755556-21.807407 0-41.718519-8.533333-55.940741-22.755556s-22.755556-34.133333-22.755555-55.94074c0-21.807407 8.533333-41.718519 22.755555-55.940741 14.222222-15.17037 34.133333-23.703704 55.940741-23.703704z m-583.111111 0c-21.807407 0-41.718519 8.533333-55.940741 23.703704-14.222222 14.222222-23.703704 34.133333-23.703704 55.940741 0 21.807407 8.533333 41.718519 23.703704 55.94074 14.222222 14.222222 34.133333 22.755556 55.940741 22.755556 21.807407 0 41.718519-8.533333 55.940741-22.755556s23.703704-34.133333 23.703703-55.94074c0-21.807407-8.533333-41.718519-23.703703-55.940741-14.222222-15.17037-34.133333-23.703704-55.940741-23.703704z m673.185185 110.933333z" p-id="9291"></path><path d="M292.977778 441.837037s-15.17037-40.77037-24.651852-42.666667c-9.481481-2.844444-21.807407 10.42963-21.807407 10.42963l9.481481 37.925926 36.977778-5.688889z" p-id="9292"></path></svg>